# xmcd
#
# Track frame offsets:
#	150
#	69152
#	127005
#	171857
#	230675
#
# Disc length: 3870 seconds
#
# Revision: 1
# Processed by: cddbd v1.5.1PL0 Copyright (c) Steve Scherf et al.
# Submitted via: CDex 1.50Beta5
#
DISCID=3f0f1c05
DTITLE=Bedrich Smetana - Ma Vlast - My Country - Ma Patrie (Vol. 1)
DYEAR=1900
DGENRE=Classical
TTITLE0=Ma Vlast - Vysehrad (Ch将、teau sur une hauteur)
TTITLE1=Ma Vlast - Vlatva (Moldau)
TTITLE2=Ma Vlast - Sarka
TTITLE3=Ma Vlast - Des for将エts et prairies de Boh将イme
TTITLE4=Ma Vlast - Tabor
EXTD=
EXTT0=
EXTT1=
EXTT2=
EXTT3=
EXTT4=
PLAYORDER=
